<?xml version="1.0" standalone="no"?>
<!DOCTYPE svg PUBLIC "-//W3C//DTD SVG 20010904//EN"
 "http://www.w3.org/TR/2001/REC-SVG-20010904/DTD/svg10.dtd">
<svg version="1.0" xmlns="http://www.w3.org/2000/svg"
 width="512.000000pt" height="512.000000pt" viewBox="0 0 512.000000 512.000000"
 preserveAspectRatio="xMidYMid meet">
<metadata>
Created by potrace 1.16, written by Peter Selinger 2001-2019
</metadata>
<g transform="translate(0.000000,512.000000) scale(0.100000,-0.100000)"
fill="#000000" stroke="none">
<path d="M2954 4747 c11 -7 33 -25 50 -41 l31 -28 -33 26 c-19 14 -39 26 -45
26 -6 0 -3 -6 6 -12 11 -9 16 -25 14 -50 -2 -38 -2 -38 -47 -40 -41 -1 -42 -2
-9 -5 l36 -4 -13 -76 c-8 -42 -19 -92 -25 -112 -22 -72 -81 -236 -90 -254 -9
-17 -8 -17 20 -3 71 37 201 335 201 462 0 59 -19 91 -66 110 -40 17 -56 17
-30 1z"/>
<path d="M2155 4629 c-4 -6 -5 -12 -2 -15 2 -3 7 2 10 11 7 17 1 20 -8 4z"/>
<path d="M2588 4603 c6 -2 18 -2 25 0 6 3 1 5 -13 5 -14 0 -19 -2 -12 -5z"/>
<path d="M2131 4561 c-7 -13 -11 -34 -8 -47 2 -14 1 -27 -4 -30 -4 -2 -6 -11
-2 -19 3 -9 -1 -15 -8 -15 -10 0 -10 -3 -3 -8 6 -4 17 -45 23 -92 17 -118 29
-159 60 -202 28 -39 111 -84 146 -80 12 2 34 -4 50 -12 22 -11 31 -12 36 -4 6
9 15 9 36 -1 l28 -13 -25 27 c-14 15 -38 36 -53 47 l-29 20 -32 -31 -33 -32
-66 168 c-63 164 -92 256 -99 318 l-3 30 -14 -24z"/>
<path d="M2520 4395 l0 -45 155 0 155 0 0 45 0 45 -155 0 -155 0 0 -45z"/>
<path d="M2650 4281 l-125 -6 -3 -32 -3 -33 151 0 151 0 -3 38 c-4 43 9 41
-168 33z"/>
<path d="M2891 4174 c-13 -9 -44 -25 -70 -36 -25 -10 -36 -17 -23 -14 12 2 22
0 22 -4 0 -5 10 -10 23 -12 16 -2 23 -11 25 -30 2 -16 6 -28 10 -28 3 0 23 17
44 37 35 34 39 36 63 23 44 -24 37 -4 -13 39 -28 22 -52 41 -54 41 -2 0 -14
-7 -27 -16z"/>
<path d="M2407 4163 c-16 -19 -16 -20 6 -40 12 -11 33 -26 47 -33 l25 -13 -24
27 -24 26 27 0 c14 0 29 -7 32 -15 9 -22 26 -6 18 17 -4 13 -1 24 7 29 11 7 9
9 -6 9 -11 0 -36 3 -55 6 -27 4 -39 1 -53 -13z"/>
<path d="M2535 4140 c3 -5 24 -8 46 -8 22 0 38 2 36 5 -9 8 -87 12 -82 3z"/>
<path d="M2748 4113 c7 -3 16 -2 19 1 4 3 -2 6 -13 5 -11 0 -14 -3 -6 -6z"/>
<path d="M1112 4058 c-116 -188 -346 -739 -403 -963 -11 -44 -29 -105 -39
-135 -67 -200 -176 -764 -209 -1085 -15 -140 -15 -412 -1 -595 10 -136 8 -240
-7 -305 -2 -11 -6 -56 -9 -100 -7 -103 3 -121 87 -162 58 -29 78 -34 180 -39
117 -7 208 4 259 31 30 16 27 18 -90 40 -181 35 -365 77 -374 86 -10 9 13 185
41 312 15 68 15 70 -10 125 -15 33 -30 93 -36 142 -13 101 -13 92 -3 86 4 -2
6 59 4 137 -4 146 17 436 44 627 26 178 163 788 209 927 66 201 187 497 290
711 52 105 92 192 90 192 -2 0 -12 -15 -23 -32z"/>
<path d="M2629 4079 c-25 -9 -43 -39 -40 -66 1 -7 -5 -26 -14 -43 -11 -22 -13
-35 -6 -49 6 -10 10 -38 9 -62 0 -24 3 -57 7 -74 l8 -30 -23 20 -22 20 23 -44
22 -43 -5 -502 c-3 -275 -2 -730 1 -1011 7 -499 7 -489 11 435 2 520 4 1033 5
1140 1 199 10 266 42 303 18 19 18 19 -18 6z"/>
<path d="M2466 3961 c10 -38 61 -148 71 -154 5 -3 0 15 -12 41 -46 100 -65
136 -59 113z"/>
<path d="M1127 3903 c11 -2 28 -19 37 -36 8 -18 16 -25 16 -17 0 27 -30 60
-53 59 l-22 -2 22 -4z"/>
<path d="M1107 3867 c-3 -8 -3 -25 0 -38 4 -15 3 -20 -5 -15 -37 23 29 -345
98 -543 44 -125 65 -260 58 -361 -4 -58 -4 -58 30 -74 18 -9 31 -12 27 -7 -3
5 1 13 9 18 11 6 16 36 21 113 3 58 15 144 27 191 21 88 20 123 -5 113 -9 -3
-12 -14 -9 -30 13 -70 -56 39 -88 139 -14 43 -23 49 -15 10 5 -28 5 -28 -5 -4
-6 14 -9 30 -6 37 6 15 -42 178 -54 182 -5 2 -6 10 -3 18 3 8 0 14 -6 14 -6 0
-8 7 -5 15 4 8 1 15 -6 15 -6 0 -9 4 -6 9 7 11 -31 192 -43 204 -5 5 -11 2
-14 -6z m212 -642 c0 -5 -8 6 -19 25 -11 19 -19 40 -19 45 0 6 8 -6 19 -25 11
-19 19 -39 19 -45z"/>
<path d="M2660 3858 c0 -9 5 -20 11 -23 17 -11 18 -2 3 19 -12 17 -14 17 -14
4z"/>
<path d="M2650 3492 c0 -4 5 -13 12 -20 15 -15 28 -16 28 -2 0 6 -7 10 -16 10
-8 0 -12 5 -9 10 3 6 1 10 -4 10 -6 0 -11 -4 -11 -8z"/>
<path d="M2644 3005 c-4 -9 -1 -22 6 -28 10 -9 14 -9 17 1 3 6 8 10 13 7 5 -3
7 3 6 12 -4 24 -34 29 -42 8z m36 1 c0 -2 -7 -9 -15 -16 -12 -10 -15 -10 -15
4 0 9 7 16 15 16 8 0 15 -2 15 -4z"/>
<path d="M3950 2868 c0 -3 -5 -30 -11 -59 -21 -110 -46 -325 -39 -344 6 -17 8
-16 13 10 3 17 9 62 12 100 3 39 13 119 22 178 8 59 13 111 9 114 -3 4 -6 4
-6 1z"/>
<path d="M1287 2778 c-8 -18 -17 -55 -21 -80 -4 -26 -11 -50 -17 -53 -5 -4 -9
-31 -9 -61 0 -30 -4 -53 -9 -50 -13 9 -20 -82 -8 -120 9 -30 7 -38 -11 -64
-24 -31 -28 -55 -12 -65 6 -3 7 1 4 12 -5 17 -5 17 6 0 6 -9 8 -22 5 -27 -3
-6 -1 -10 5 -10 6 0 9 -4 5 -9 -3 -5 -1 -12 4 -16 11 -6 -5 -58 -38 -123 -26
-51 -27 -65 -2 -33 17 23 19 23 24 5 28 -92 36 -352 18 -584 -19 -240 -28
-327 -42 -425 -5 -38 -11 -120 -12 -181 -2 -106 -1 -112 26 -152 34 -52 74
-77 202 -127 55 -21 146 -60 201 -86 124 -58 175 -76 256 -88 62 -10 817 -7
1088 5 69 3 179 6 245 7 l120 2 225 112 c124 62 234 121 245 133 22 24 -46 -5
-251 -108 -145 -73 -187 -85 -369 -112 -124 -19 -191 -21 -575 -22 -367 -2
-449 1 -526 15 -140 25 -247 63 -379 131 -66 35 -178 87 -250 116 -71 30 -145
63 -163 73 l-33 20 6 116 c4 64 13 170 20 236 28 245 39 559 27 772 -16 255
-15 452 2 683 8 102 12 187 11 189 -2 2 -10 -12 -18 -31z"/>
<path d="M2653 2705 c-8 -22 6 -33 17 -15 8 13 10 13 10 1 0 -12 3 -12 12 -3
10 10 10 15 -2 22 -21 14 -30 12 -37 -5z"/>
<path d="M3780 2602 c0 -5 20 -26 45 -46 25 -21 42 -31 39 -23 -7 18 -84 81
-84 69z"/>
<path d="M3781 2248 c1 -84 4 -138 8 -119 l6 34 41 -79 c44 -83 59 -136 69
-244 4 -36 13 -96 20 -135 8 -38 16 -131 19 -205 3 -74 10 -171 16 -215 5 -44
14 -134 19 -200 6 -66 13 -136 16 -155 3 -19 8 -51 11 -70 19 -135 51 -180
133 -188 95 -9 287 44 393 108 29 17 45 29 35 26 -40 -13 -306 -65 -363 -71
-55 -7 -63 -5 -68 11 -15 49 -65 317 -60 325 3 5 -6 42 -20 82 -46 135 -63
434 -31 557 26 101 27 106 17 92 -7 -10 -17 -4 -45 28 -43 50 -50 78 -39 147
6 36 5 53 -2 56 -6 3 -20 30 -30 60 -10 31 -36 82 -58 114 -21 32 -47 88 -59
126 -11 37 -22 67 -24 67 -3 0 -4 -69 -4 -152z"/>
<path d="M2660 2345 c-11 -13 -11 -18 0 -28 10 -10 11 -9 5 3 -8 13 -6 13 7 2
21 -17 31 0 15 22 -12 16 -14 17 -27 1z"/>
<path d="M602 2135 c-8 -33 -22 -107 -33 -165 -11 -58 -22 -113 -25 -124 -4
-12 -2 -16 6 -11 13 8 8 -105 -12 -255 -15 -120 -16 -261 0 -285 10 -17 11 -4
6 70 -7 102 13 331 52 607 26 182 29 273 6 163z"/>
<path d="M2640 2000 c0 -13 7 -20 19 -20 25 0 37 18 22 33 -8 8 -11 8 -11 -1
0 -7 -5 -12 -11 -12 -5 0 -7 5 -4 10 3 6 1 10 -4 10 -6 0 -11 -9 -11 -20z"/>
<path d="M2480 1763 c-1 -206 -4 -297 -29 -693 -16 -263 -21 -496 -11 -531 7
-22 6 -35 -1 -40 -7 -4 -5 -9 6 -12 21 -9 22 -2 29 123 9 144 19 1370 12 1370
-3 0 -6 -98 -6 -217z"/>
<path d="M3990 1872 c0 -9 25 -33 48 -46 25 -15 11 14 -18 34 -16 12 -30 17
-30 12z"/>
<path d="M2633 1623 c4 -3 1 -13 -6 -21 -10 -13 -9 -15 6 -9 19 7 22 -3 7 -21
-6 -8 -5 -8 5 1 16 13 10 57 -8 57 -6 0 -7 -3 -4 -7z"/>
<path d="M2601 1604 c0 -11 3 -14 6 -6 3 7 2 16 -1 19 -3 4 -6 -2 -5 -13z"/>
<path d="M2580 1604 c0 -6 6 -29 14 -50 7 -22 17 -63 21 -92 4 -29 9 -51 12
-48 8 8 -15 130 -32 168 -8 18 -14 28 -15 22z"/>
<path d="M664 1575 c-3 -14 -10 -25 -14 -25 -18 0 -41 -109 -56 -270 -5 -55
-6 -58 50 116 45 137 56 204 36 204 -5 0 -12 -11 -16 -25z"/>
<path d="M4206 1467 c6 -17 0 -41 -41 -172 -28 -87 -26 -92 8 -20 19 39 40 94
47 123 11 48 11 56 -4 70 -16 16 -17 16 -10 -1z"/>
<path d="M916 1423 c-13 -85 -2 -166 29 -203 7 -8 15 -24 19 -35 3 -11 3 -3 0
18 -3 21 -13 63 -23 95 -13 39 -17 74 -14 110 6 60 -1 70 -11 15z"/>
<path d="M1141 1444 c0 -11 3 -14 6 -6 3 7 2 16 -1 19 -3 4 -6 -2 -5 -13z"/>
<path d="M1131 1324 c0 -11 3 -14 6 -6 3 7 2 16 -1 19 -3 4 -6 -2 -5 -13z"/>
<path d="M2586 1225 c4 -8 2 -15 -4 -15 -6 0 -13 6 -15 13 -4 9 -6 9 -6 -1 -1
-16 24 -26 45 -18 13 5 14 9 4 21 -16 19 -31 19 -24 0z"/>
<path d="M3000 1055 c5 -13 18 -42 30 -64 15 -30 16 -39 6 -35 -9 4 -1 -26 25
-85 21 -50 44 -112 49 -137 6 -26 15 -55 21 -66 5 -10 12 -32 14 -49 7 -59 17
-89 28 -90 7 -1 1 -5 -13 -9 l-25 -8 25 -1 c14 0 32 4 40 9 8 5 10 10 4 10 -5
0 -18 33 -29 73 -23 90 -81 255 -96 273 -6 7 -9 19 -7 26 3 7 15 -7 28 -30 13
-23 25 -40 27 -38 4 4 -83 183 -108 225 -19 29 -31 27 -19 -4z"/>
</g>
</svg>