<?xml version="1.0" standalone="no"?>
<!DOCTYPE svg PUBLIC "-//W3C//DTD SVG 20010904//EN"
 "http://www.w3.org/TR/2001/REC-SVG-20010904/DTD/svg10.dtd">
<svg version="1.0" xmlns="http://www.w3.org/2000/svg"
 width="512.000000pt" height="512.000000pt" viewBox="0 0 512.000000 512.000000"
 preserveAspectRatio="xMidYMid meet">
<metadata>
Created by potrace 1.16, written by Peter Selinger 2001-2019
</metadata>
<g transform="translate(0.000000,512.000000) scale(0.100000,-0.100000)"
fill="#000000" stroke="none">
<path d="M2510 4625 c-165 -31 -311 -135 -415 -295 -26 -41 -70 -108 -96 -148
-27 -40 -67 -112 -90 -160 -55 -115 -133 -353 -155 -472 -10 -52 -20 -98 -23
-102 -3 -3 -172 -11 -376 -17 -384 -12 -495 -19 -515 -31 -8 -5 -5 -92 14
-341 14 -184 37 -494 51 -689 30 -425 72 -934 85 -1045 13 -106 13 -210 -2
-388 -12 -141 -13 -147 -34 -147 -35 0 -139 -57 -159 -86 -17 -26 -17 -29 1
-63 21 -39 83 -105 91 -97 3 3 20 -6 37 -19 47 -35 243 -124 356 -160 30 -10
77 -29 104 -42 42 -21 61 -25 149 -24 154 1 238 10 1312 141 88 11 187 22 220
25 33 4 130 15 215 25 85 11 220 26 300 35 304 34 467 56 528 72 97 25 98 28
111 323 6 135 13 362 16 505 3 143 10 359 15 480 32 726 53 1506 41 1518 -5 5
-161 13 -346 17 -186 5 -341 12 -345 17 -4 4 -15 42 -25 83 -81 346 -292 750
-476 913 -170 150 -381 212 -589 172z m4 -54 c-216 -78 -357 -257 -480 -613
-47 -137 -109 -374 -120 -459 -6 -43 -9 -49 -31 -49 -28 0 -29 -9 18 220 58
284 96 415 159 545 32 67 54 95 132 170 52 50 119 105 150 123 57 34 181 82
208 81 8 0 -8 -9 -36 -18z m367 -49 c121 -48 195 -152 229 -325 28 -138 61
-433 67 -600 l6 -148 -54 8 c-30 4 -285 8 -566 8 -416 0 -513 2 -513 13 0 7
16 51 35 98 45 108 96 278 130 430 46 202 90 296 188 401 57 60 128 109 190
129 65 21 218 13 288 -14z m-507 -85 c-100 -106 -141 -203 -194 -452 -31 -148
-97 -365 -126 -414 -14 -24 -15 -18 -9 74 14 252 95 508 215 686 34 49 152
169 167 169 3 0 -21 -28 -53 -63z m803 -194 c43 -93 75 -216 112 -428 40 -230
44 -265 36 -319 -6 -35 -12 -46 -25 -46 -16 0 -19 12 -25 78 -31 359 -87 655
-151 786 -24 48 -24 50 -3 26 12 -14 37 -57 56 -97z m117 -121 c137 -225 200
-393 224 -592 6 -47 10 -86 9 -87 -1 0 -41 1 -89 4 l-88 6 0 81 c0 77 -36 353
-60 461 -14 64 -44 161 -64 209 -25 60 -3 33 68 -82z m-286 -674 c283 -11 312
-14 312 -29 0 -50 8 -49 -304 -50 -160 -1 -430 -5 -601 -9 -180 -4 -18 -5 388
-2 522 4 697 2 697 -6 0 -7 -6 -12 -12 -13 -7 0 -8 -2 -3 -5 6 -2 9 -78 7
-206 -2 -112 1 -246 7 -297 6 -52 9 -96 8 -97 -8 -9 -688 -35 -1039 -41 l-418
-6 0 336 0 337 28 1 27 2 -27 4 c-25 4 -28 8 -28 43 l0 39 123 4 c315 8 547 6
835 -5z m-1110 -40 l-3 -33 -135 -5 -135 -6 133 -2 134 -2 -7 -87 c-3 -49 -10
-223 -15 -387 -12 -359 -14 -350 77 -354 80 -4 103 17 103 93 l0 52 463 6
c254 4 581 13 727 21 145 8 266 14 267 12 2 -2 6 -28 10 -57 8 -79 24 -99 76
-99 30 0 50 6 66 21 21 20 22 27 16 88 l-7 67 209 15 c114 8 210 13 213 11 3
-2 7 -326 10 -720 5 -702 5 -710 14 -401 8 302 3 860 -13 1339 l-7 225 -2
-211 -2 -212 -52 -6 c-109 -12 -359 -28 -365 -23 -7 8 -30 277 -39 460 l-7
147 64 0 c56 0 217 12 502 36 l77 7 -5 -129 c-3 -71 -12 -340 -20 -599 -15
-469 -35 -1004 -56 -1505 -7 -146 -11 -317 -10 -381 3 -129 -3 -144 -62 -153
-18 -3 -133 -15 -257 -26 -124 -11 -353 -34 -510 -50 -157 -17 -370 -39 -475
-50 -333 -36 -884 -99 -1085 -126 -315 -41 -315 -41 -334 -11 -9 13 -21 48
-25 76 -4 28 -5 538 -1 1133 4 595 4 1094 0 1108 -11 42 -19 -373 -26 -1335
-4 -501 -7 -911 -9 -912 -4 -6 -140 185 -192 270 -108 177 -107 175 -114 402
l-5 200 -2 -181 c-1 -130 2 -194 12 -227 l14 -46 -40 -6 c-22 -4 -42 -5 -45
-1 -3 3 0 79 6 170 8 115 9 189 2 243 -6 43 -13 119 -17 168 l-6 90 31 -45
c22 -32 31 -58 32 -90 l2 -45 6 40 c7 47 2 87 -10 79 -11 -7 -47 51 -59 96
-14 52 -26 194 -65 730 -41 579 -73 987 -81 1053 l-6 49 138 -7 c77 -4 140 -8
141 -9 1 0 3 -287 5 -636 2 -419 6 -605 11 -548 5 48 5 336 0 640 l-8 553 -65
6 c-64 5 -64 6 -14 7 28 1 72 5 98 8 38 6 46 4 46 -10 0 -9 5 -16 10 -16 6 0
10 6 10 14 0 11 27 15 123 20 67 4 187 10 267 15 80 4 176 9 213 10 l68 1 -3
-32z m1570 26 c49 -6 52 -8 52 -35 l0 -29 -90 0 c-82 0 -90 2 -90 19 0 52 16
58 128 45z m675 -23 c4 -4 -86 -13 -200 -20 -114 -6 -234 -13 -265 -15 -58 -4
-68 2 -68 41 0 14 28 15 263 9 144 -4 266 -11 270 -15z"/>
<path d="M1343 3373 c48 -2 125 -2 170 0 45 1 6 3 -88 3 -93 0 -130 -2 -82 -3z"/>
<path d="M1132 2075 c0 -16 2 -22 5 -12 2 9 2 23 0 30 -3 6 -5 -1 -5 -18z"/>
<path d="M1122 2010 c0 -14 2 -19 5 -12 2 6 2 18 0 25 -3 6 -5 1 -5 -13z"/>
<path d="M1112 1945 c0 -16 2 -22 5 -12 2 9 2 23 0 30 -3 6 -5 -1 -5 -18z"/>
<path d="M1103 1865 c0 -22 2 -30 4 -17 2 12 2 30 0 40 -3 9 -5 -1 -4 -23z"/>
<path d="M1092 1780 c0 -19 2 -27 5 -17 2 9 2 25 0 35 -3 9 -5 1 -5 -18z"/>
<path d="M1083 1660 c0 -41 2 -58 4 -37 2 20 2 54 0 75 -2 20 -4 3 -4 -38z"/>
<path d="M4092 1280 c0 -14 2 -19 5 -12 2 6 2 18 0 25 -3 6 -5 1 -5 -13z"/>
<path d="M4110 1215 c0 -5 5 -17 10 -25 5 -8 10 -10 10 -5 0 6 -5 17 -10 25
-5 8 -10 11 -10 5z"/>
<path d="M4141 1124 c0 -11 3 -14 6 -6 3 7 2 16 -1 19 -3 4 -6 -2 -5 -13z"/>
<path d="M4152 1070 c0 -19 2 -27 5 -17 2 9 2 25 0 35 -3 9 -5 1 -5 -18z"/>
<path d="M4163 970 c0 -25 2 -35 4 -22 2 12 2 32 0 45 -2 12 -4 2 -4 -23z"/>
</g>
</svg>